<svg xmlns="http://www.w3.org/2000/svg" viewBox="0 0 100 100">
  <defs>
    <linearGradient id="edgeGradient" x1="0%" y1="0%" x2="100%" y2="100%">
      <stop offset="0%" style="stop-color:#0078D4"/>
      <stop offset="100%" style="stop-color:#0D47A1"/>
    </linearGradient>
  </defs>
  <path d="M50,10 C28,10 10,28 10,50 C10,72 28,90 50,90 C72,90 90,72 90,50 C90,28 72,10 50,10 Z M50,80 C34,80 20,66 20,50 C20,34 34,20 50,20 C66,20 80,34 80,50 C80,66 66,80 50,80 Z" fill="url(#edgeGradient)"/>
  <path d="M35,35 C40,30 47,30 50,30 C65,30 75,45 70,60 C65,75 50,75 40,70 C30,65 30,55 35,50 C40,45 50,45 55,50 C60,55 60,65 50,70" fill="none" stroke="#0078D4" stroke-width="5" stroke-linecap="round"/>
</svg>
